<svg width="96" height="96" version="1.1" viewBox="0 0 96 96" xmlns="http://www.w3.org/2000/svg">
  <defs>
    <style>
      @media (prefers-color-scheme: dark) {
        .fav-bg {
          fill: transparent;
        }
        .fav-m {
          fill: #ffffff;
        }
      }
    </style>
  </defs>
  <g>
    <rect class="fav-bg" width="96" height="96" fill="transparent"/>
    <path class="fav-m" d="m48.3 42.63-25.9-32.63h-10.39v54h10.39v-33.37c0-0.8588-0.02296-1.748-0.07653-2.655-0.05358-0.9075-0.1301-1.95-0.2335-3.064 0.3774 0.9059 0.8226 1.783 1.332 2.625 0.5958 0.9937 1.246 1.955 1.948 2.88l20.7 27.05h2.553l20.67-26.95c0.4133-0.5775 0.8879-1.316 1.408-2.212 0.5205-0.8962 1.125-2.051 1.818-3.45-0.1416 1.223-0.2526 2.336-0.3368 3.323-0.0842 0.9862-0.134 1.796-0.134 2.452v33.37h11.96v-54h-10.3z" fill="#070707"/>
    <rect x="12" y="72" width="72" height="12" fill="#e00999"/>
  </g>
</svg>